<svg width="46" height="46" viewBox="0 0 46 46" fill="none" xmlns="http://www.w3.org/2000/svg">
    <g id="UPNODE-FILES_update_icon-01 1">
        <g id="Group">
            <path id="Vector"
                d="M22.4686 6.14566C22.4416 6.14904 22.3506 6.16085 22.2662 6.17097C21.7771 6.23003 21.2036 6.41226 20.7061 6.66872C19.4951 7.29134 18.3431 8.48256 17.4171 10.0669C17.3496 10.1833 17.2923 10.2795 17.2906 10.2812C17.2889 10.2846 17.2349 10.2711 17.1708 10.2525C16.5265 10.0652 15.6967 9.90157 14.9883 9.82058C14.6645 9.78515 13.7115 9.76996 13.3944 9.79527C12.0063 9.91001 10.9302 10.3673 10.1392 11.1822C9.92834 11.3982 9.81196 11.5416 9.66353 11.7626C9.26717 12.3532 9.02935 13.0332 8.9214 13.8886C8.88598 14.1805 8.88092 15.009 8.91297 15.3313C9.05971 16.7621 9.49149 18.1997 10.2741 19.8532C10.7042 20.7643 11.3165 21.8375 11.922 22.7418C12.013 22.8785 12.0873 22.9949 12.0873 22.9983C12.0873 23.0034 11.9827 23.1653 11.8528 23.3611C10.2572 25.7722 9.225 28.2458 8.95176 30.3093C8.87417 30.8965 8.86237 31.6777 8.92477 32.1518C9.02935 32.9685 9.27054 33.6518 9.65004 34.2205C10.3939 35.3358 11.5627 35.9921 13.133 36.1794C13.4383 36.2148 14.2647 36.23 14.6004 36.2047C15.3847 36.1457 16.1403 36.0141 16.987 35.7896C17.1692 35.7407 17.2906 35.7154 17.2957 35.7272C17.3108 35.7745 17.6617 36.3448 17.8236 36.5844C18.9132 38.2025 20.1495 39.2368 21.514 39.6687C22.2156 39.8898 23.0134 39.9303 23.7505 39.7784C24.7692 39.5675 25.7728 38.9719 26.6937 38.0321C27.2604 37.4533 27.7782 36.7649 28.2522 35.9617C28.3331 35.8251 28.404 35.7137 28.409 35.7137C28.4141 35.7137 28.5288 35.7441 28.6654 35.7812C29.3907 35.9786 30.1514 36.1204 30.8597 36.1895C31.165 36.2199 32.2006 36.2182 32.4705 36.1895C33.7996 36.0427 34.8386 35.5737 35.5874 34.7857C36.2419 34.0973 36.6281 33.2081 36.7647 32.0776C36.7951 31.8313 36.7951 30.9016 36.7664 30.6181C36.6467 29.4691 36.333 28.2964 35.805 27.0242C35.52 26.3341 35.0477 25.3824 34.6514 24.6974L34.5603 24.5388L34.6159 24.4359C34.793 24.1102 34.7981 23.7424 34.6311 23.4049C34.4726 23.0827 34.1842 22.8583 33.8165 22.7705C33.6242 22.7233 33.3425 22.7317 33.162 22.7891C32.7556 22.9173 32.4739 23.1907 32.3491 23.5737C32.312 23.6867 32.3052 23.739 32.3052 23.9027C32.3052 24.0664 32.312 24.1187 32.3491 24.2317C32.4553 24.5574 32.6628 24.7902 32.9765 24.9404C33.1603 25.0264 33.2497 25.0517 33.4471 25.0652L33.5955 25.0754L33.781 25.4044C34.0391 25.8583 34.368 26.5062 34.567 26.9482C35.1658 28.2761 35.4997 29.3729 35.6515 30.5084C35.7038 30.8931 35.7089 31.7402 35.6617 32.0607C35.5368 32.9027 35.2484 33.5439 34.766 34.0551C34.2179 34.6355 33.4623 34.9814 32.4368 35.1181C32.1602 35.1535 31.2797 35.1603 30.9609 35.1265C30.3318 35.0607 29.4986 34.9055 28.9977 34.7604L28.9066 34.7334L29.0398 34.4398C30.0721 32.1485 30.7653 29.3796 31.0621 26.3611C31.0908 26.0658 31.0942 25.9764 31.079 25.9055C31.0267 25.6558 30.8075 25.4837 30.5393 25.482C30.4313 25.482 30.3959 25.4887 30.3015 25.5326C30.2003 25.5815 30.1615 25.6187 29.8275 25.9797C27.8052 28.1766 25.6362 30.0461 23.317 31.5917C22.8869 31.8785 22.8464 31.9004 22.811 31.8819C22.7891 31.8701 22.5597 31.7199 22.3 31.5461C20.809 30.5472 19.4259 29.4522 17.999 28.1378C17.3952 27.581 15.9446 26.1114 15.7287 25.8363C15.6933 25.7908 15.6866 25.7553 15.6613 25.3892C15.5972 24.5034 15.5871 24.1406 15.5888 22.9241C15.5888 21.7396 15.5955 21.5304 15.6562 20.6209C15.6832 20.2345 15.6866 20.2143 15.7271 20.1653C15.9767 19.8616 17.1253 18.6873 17.7123 18.1322C20.6622 15.3481 23.8314 13.2222 26.9265 11.9466C27.1154 11.8689 27.2773 11.8048 27.2874 11.8048C27.2975 11.8048 27.3329 11.8268 27.3667 11.8538C27.7445 12.1507 28.3449 12.1794 28.7784 11.9213C28.9066 11.8453 29.1006 11.653 29.1765 11.5264C29.4244 11.1181 29.389 10.6035 29.0871 10.2255C28.883 9.96906 28.5069 9.78008 28.1999 9.78008H28.0919L27.9688 9.58773C26.9771 8.06074 25.7779 6.97243 24.5348 6.46962C24.216 6.3397 23.882 6.2469 23.5211 6.18447C23.3575 6.15747 23.2243 6.14735 22.9156 6.14398C22.698 6.1406 22.4973 6.14229 22.4686 6.14566ZM23.2833 7.22553C24.5348 7.41113 25.734 8.29527 26.805 9.82227C26.8708 9.91507 26.9636 10.0534 27.0125 10.1294L27.1019 10.2694L27.0243 10.4246C26.9821 10.5107 26.9383 10.6305 26.9265 10.6895C26.9079 10.784 26.8995 10.7992 26.8539 10.8195C26.827 10.8313 26.6701 10.8954 26.5082 10.9612C25.4287 11.4016 24.3105 11.9617 23.1737 12.6333C23.0016 12.7345 22.8532 12.8172 22.8448 12.8172C22.8363 12.8172 22.6896 12.7345 22.5192 12.6316C21.3285 11.9213 19.9015 11.2177 18.7664 10.7857C18.6045 10.7233 18.446 10.6642 18.4156 10.6524L18.3616 10.6305L18.5134 10.3808C19.1206 9.38189 19.8324 8.56355 20.5593 8.0253C21.1362 7.59673 21.767 7.32002 22.3809 7.22553C22.5968 7.19178 23.0623 7.19178 23.2833 7.22553ZM28.3331 10.3116C28.5777 10.3976 28.7481 10.7165 28.7008 11.0034C28.6502 11.3189 28.4208 11.5197 28.1105 11.5231C27.8255 11.5247 27.6028 11.3644 27.5252 11.0979C27.4864 10.9629 27.4999 10.7452 27.5573 10.622C27.6349 10.4499 27.7765 10.3318 27.9536 10.2863C28.0397 10.2643 28.237 10.2778 28.3331 10.3116ZM14.9613 10.892C15.4741 10.9544 16.0863 11.0709 16.5788 11.2008C16.6868 11.2295 16.7762 11.2581 16.7762 11.2649C16.7762 11.27 16.7154 11.4117 16.6395 11.5787C15.8772 13.2643 15.2936 15.252 14.9225 17.4235C14.8078 18.0883 14.6796 19.0433 14.624 19.644C14.6139 19.7604 14.6122 19.7638 14.5042 19.8886C14.0151 20.4471 13.4281 21.1676 13.0082 21.7227C12.88 21.8931 12.7687 22.0264 12.7619 22.018C12.7552 22.0112 12.6945 21.9168 12.627 21.8105C11.6875 20.3273 11.0044 18.9488 10.5541 17.6226C9.93677 15.8003 9.82376 14.3088 10.2151 13.1209C10.2893 12.8965 10.5136 12.4511 10.6485 12.2604C10.7953 12.0546 11.141 11.7087 11.3401 11.5686C11.8663 11.1991 12.4769 10.9764 13.2173 10.8869C13.5395 10.8465 13.5428 10.8465 14.1281 10.8515C14.5498 10.8566 14.7421 10.865 14.9613 10.892ZM18.1963 11.7188C19.2522 12.1153 20.362 12.6417 21.4819 13.2761C21.6675 13.3808 21.8193 13.4702 21.8193 13.4752C21.8193 13.4803 21.7383 13.536 21.6388 13.6018C21.1395 13.9291 20.2895 14.5433 19.6772 15.0174C18.478 15.9471 17.4154 16.8802 16.2837 17.9955C16.0711 18.203 15.8991 18.365 15.8991 18.3549C15.8991 18.3431 15.9261 18.1659 15.9581 17.9601C16.3073 15.7514 16.8925 13.698 17.6583 12.0073C17.832 11.6226 17.8421 11.6024 17.8657 11.6024C17.8776 11.6024 18.026 11.6547 18.1963 11.7188ZM14.4739 22.9966V24.3684L14.3373 24.198C14.0725 23.8689 13.5614 23.1907 13.4636 23.0405L13.4349 22.9949L13.6491 22.703C13.8026 22.4921 14.4654 21.6249 14.4739 21.6249C14.4739 21.6249 14.4739 22.2424 14.4739 22.9966ZM33.7338 23.3459C34.1184 23.491 34.2297 24.0495 33.9379 24.3718C33.776 24.5523 33.4606 24.6046 33.2244 24.4916C33.1165 24.4376 33.0237 24.3397 32.963 24.2098C32.9141 24.1069 32.909 24.0815 32.909 23.928C32.909 23.7711 32.9124 23.7508 32.963 23.6479C33.044 23.4859 33.1671 23.3746 33.3223 23.3273C33.4117 23.3003 33.6377 23.3105 33.7338 23.3459ZM13.0065 24.2739C13.4045 24.8037 13.8481 25.3521 14.3642 25.9527L14.6122 26.2396L14.6324 26.4589C14.9023 29.302 15.6478 32.2581 16.6514 34.4567C16.7458 34.6625 16.7694 34.73 16.7525 34.7385C16.7121 34.7621 16.1251 34.9021 15.8131 34.9629C14.7994 35.162 13.8684 35.2092 13.0993 35.0962C12.1395 34.9578 11.3637 34.5714 10.8425 33.9758C10.4411 33.5169 10.1678 32.9061 10.0565 32.221C9.96713 31.6642 9.97556 30.9454 10.0801 30.257C10.3483 28.5107 11.2271 26.4033 12.5747 24.2773C12.681 24.1085 12.772 23.9702 12.7737 23.9702C12.7754 23.9702 12.88 24.1069 13.0065 24.2739ZM16.8217 28.5292C17.3024 28.9899 17.9703 29.5889 18.5387 30.0697C19.4326 30.8273 20.8039 31.8633 21.6219 32.3982C21.7198 32.4623 21.8024 32.5214 21.8024 32.5281C21.8024 32.5349 21.6826 32.6074 21.5359 32.6918C20.5728 33.2385 19.5271 33.7463 18.6231 34.1074C18.2655 34.2508 17.8539 34.4027 17.8489 34.3943C17.827 34.3605 17.6026 33.8661 17.5065 33.6384C16.8234 32.0472 16.2584 29.9955 15.9581 28.0197C15.9345 27.8661 15.9126 27.7143 15.9058 27.6822C15.8974 27.6282 15.921 27.6468 16.2398 27.9623C16.4287 28.1479 16.6901 28.4027 16.8217 28.5292ZM29.7297 27.9876C29.416 29.9736 28.8982 31.8718 28.2336 33.4696C28.1223 33.7362 27.9165 34.1968 27.8524 34.3251L27.8153 34.3959L27.4443 34.2559C26.6279 33.9488 25.7677 33.5607 24.9564 33.1322C24.5955 32.9432 23.9158 32.5669 23.8871 32.5416C23.8804 32.5332 23.9563 32.4724 24.0558 32.4049C25.9128 31.1631 27.8575 29.5568 29.4851 27.9201C29.642 27.7615 29.7735 27.6384 29.7769 27.6468C29.7786 27.6535 29.7584 27.8088 29.7297 27.9876ZM23.312 33.4612C24.5331 34.1749 25.8706 34.8195 27.0125 35.2446C27.166 35.302 27.2958 35.3509 27.2992 35.3543C27.3093 35.3611 27.0749 35.7458 26.9029 36.0039C26.3395 36.8425 25.6767 37.5579 25.0323 38.0253C24.0929 38.7036 23.0809 38.9449 22.1127 38.7188C21.5427 38.5855 20.927 38.27 20.3772 37.8296C20.1562 37.6524 19.6047 37.1057 19.409 36.8695C19.0886 36.4831 18.8052 36.0849 18.5185 35.6209C18.4122 35.4488 18.3701 35.3644 18.3835 35.3577C18.3954 35.3509 18.51 35.3071 18.6399 35.2581C19.8577 34.806 21.2239 34.1428 22.5192 33.3751L22.8397 33.1862L22.8987 33.2199C22.9308 33.2385 23.118 33.3481 23.312 33.4612Z"
                fill="#1738A4" />
            <path id="Vector_2"
                d="M32.9849 13.0889C32.8331 13.1142 32.6661 13.207 32.5498 13.3301C32.43 13.4584 32.3693 13.5799 32.3406 13.7435C32.258 14.2278 32.6358 14.6732 33.1283 14.6732C33.6326 14.6732 34.0104 14.2075 33.9058 13.7148C33.8384 13.3909 33.5769 13.1395 33.2548 13.0889C33.1317 13.0686 33.1148 13.0686 32.9849 13.0889Z"
                fill="#1738A4" />
            <path id="Vector_3"
                d="M30.2864 14.8436C29.8631 14.8926 29.4363 15.0427 29.0973 15.2638C28.4513 15.6873 28.0229 16.3352 27.8779 17.1113C27.834 17.3476 27.8391 17.8318 27.888 18.0782C28.1342 19.3133 29.1192 20.2008 30.3674 20.3121C30.8632 20.356 31.3557 20.2581 31.8297 20.0219C32.0962 19.8886 32.3121 19.7317 32.5297 19.5157C33.4455 18.5995 33.5956 17.1704 32.894 16.077C32.3981 15.3026 31.4924 14.8149 30.5731 14.8268C30.4854 14.8284 30.3556 14.8352 30.2864 14.8436Z"
                fill="#1738A4" />
            <path id="Vector_4"
                d="M35.5064 15.1727C35.2399 15.2317 35.0021 15.3684 34.8115 15.5726C34.4253 15.986 34.3477 16.5883 34.6159 17.108C34.6783 17.2295 34.7272 17.2936 34.8402 17.4083C35.1269 17.6986 35.4676 17.8302 35.8691 17.8065C36.0748 17.7947 36.1946 17.7627 36.3835 17.6699C36.8473 17.4404 37.1189 17 37.1189 16.4786C37.1189 16.2458 37.0818 16.0788 36.9839 15.8797C36.822 15.5506 36.4982 15.2824 36.1474 15.1879C36.0006 15.1474 35.6549 15.1389 35.5064 15.1727ZM36.0141 15.8037C36.2722 15.8915 36.4425 16.0956 36.4931 16.3723C36.564 16.7672 36.2435 17.1603 35.8336 17.1839C35.4626 17.2059 35.1539 16.9561 35.0898 16.5816C35.0325 16.2441 35.2484 15.9016 35.5908 15.7936C35.697 15.7599 35.8994 15.7649 36.0141 15.8037Z"
                fill="#1738A4" />
        </g>
    </g>
</svg>