<svg width="64" height="64" viewBox="0 0 64 64" fill="none" xmlns="http://www.w3.org/2000/svg">
<circle cx="32" cy="32" r="32" fill="white"/>
<path d="M35.4694 30.5985L37.9313 26.4209L44.5674 36.7565L44.5705 38.7401L44.5488 25.0908C44.5331 24.757 44.3559 24.4517 44.0733 24.2716L32.126 17.3996C31.8467 17.2622 31.4921 17.2639 31.2132 17.404C31.1755 17.4229 31.1402 17.4433 31.1064 17.4658L31.0647 17.492L19.4678 24.2122L19.4229 24.2329C19.3649 24.2593 19.3065 24.2933 19.2514 24.3325C19.0315 24.4901 18.8855 24.7234 18.8383 24.9847C18.8312 25.0244 18.8259 25.0648 18.8236 25.1056L18.8418 36.2285L25.0229 26.6482C25.801 25.3779 27.4967 24.9685 29.0708 24.9909L30.918 25.0396L20.0332 42.4957L21.3163 43.2344L32.3314 25.0574L37.2003 25.0396L26.2136 43.6754L30.792 46.309L31.339 46.6233C31.5705 46.7174 31.8432 46.7221 32.0765 46.6378L44.1917 39.6168L41.8754 40.9591L35.4694 30.5985ZM36.4086 44.1273L31.7844 36.8694L34.6073 32.0791L40.6804 41.6516L36.4086 44.1273Z" fill="#2D374B"/>
<path d="M31.7833 36.8696L36.4077 44.1274L40.6794 41.6518L34.6063 32.0793L31.7833 36.8696Z" fill="#28A0F0"/>
<path d="M44.5697 38.7403L44.5666 36.7567L37.9306 26.421L35.4686 30.5986L41.8749 40.9592L44.1912 39.617C44.4183 39.4325 44.5559 39.1617 44.5703 38.8696L44.5697 38.7403Z" fill="#28A0F0"/>
<path d="M16.762 40.6109L20.0329 42.4957L30.9177 25.0396L29.0705 24.991C27.4966 24.9687 25.8009 25.3779 25.0226 26.6482L18.8415 36.2285L16.762 39.4235V40.6109Z" fill="white"/>
<path d="M37.2 25.0397L32.3312 25.0574L21.316 43.2344L25.1663 45.4511L26.2131 43.6754L37.2 25.0397Z" fill="white"/>
<path d="M46.6218 25.0145C46.5812 23.9963 46.0298 23.0643 45.1663 22.5216L33.0624 15.5609C32.2082 15.1308 31.1411 15.1302 30.2853 15.5607C30.1842 15.6116 18.5145 22.3797 18.5145 22.3797C18.353 22.457 18.1975 22.5492 18.0512 22.654C17.2803 23.2066 16.8104 24.0652 16.762 25.0083V39.4238L18.8415 36.2287L18.8233 25.1056C18.8258 25.065 18.831 25.0248 18.838 24.9854C18.885 24.7236 19.0312 24.4903 19.2511 24.3325C19.3062 24.2933 31.1749 17.423 31.2127 17.404C31.4918 17.2639 31.8462 17.2623 32.1255 17.3996L44.0728 24.2717C44.3554 24.4517 44.5326 24.757 44.5483 25.0908V38.8693C44.5338 39.1614 44.4183 39.4322 44.1912 39.6166L41.8749 40.9589L40.6797 41.6516L36.4081 44.1271L32.076 46.6376C31.8427 46.7219 31.5698 46.7172 31.3385 46.6231L26.2131 43.6752L25.166 45.4508L29.7722 48.1028C29.9245 48.1894 30.0602 48.2662 30.1716 48.3289C30.344 48.4256 30.4616 48.4902 30.5031 48.5104C30.8305 48.6694 31.3014 48.7618 31.7259 48.7618C32.115 48.7618 32.4945 48.6905 32.8537 48.5498L45.4365 41.2629C46.1587 40.7033 46.5836 39.8594 46.6218 38.9454V25.0145Z" fill="#96BEDC"/>
</svg>
