<svg width="40" height="40" viewBox="0 0 40 40" fill="none" xmlns="http://www.w3.org/2000/svg">
    <g clip-path="url(#clip0_4061_88136)">
        <path
            d="M20.0056 39.9812C30.9124 39.9812 39.7541 31.0709 39.7541 20.0795C39.7541 9.08817 30.9124 0.177933 20.0056 0.177933C9.09873 0.177933 0.257019 9.08817 0.257019 20.0795C0.257019 31.0709 9.09873 39.9812 20.0056 39.9812Z"
            fill="#F23939" />
        <path
            d="M29.2007 13.5889H27.9154C27.2012 13.5889 26.5943 13.3376 26.094 12.8339C25.5943 12.3307 25.3441 11.7191 25.3441 11.0006V9.70647C25.3441 8.9869 25.094 8.3763 24.5937 7.87201C24.0939 7.36886 23.4865 7.117 22.7723 7.117H17.2017C16.4875 7.117 15.8806 7.36886 15.3803 7.87201C14.8806 8.37573 14.6304 8.9869 14.6304 9.70647V11.0006C14.6304 11.7191 14.3802 12.3307 13.88 12.8339C13.3802 13.3376 12.7728 13.5889 12.0586 13.5889H10.7733C10.0591 13.5889 9.45227 13.8408 8.95194 14.3445C8.45225 14.8476 8.20209 15.4594 8.20209 16.1778V23.9445C8.20209 24.6629 8.45169 25.2746 8.95194 25.7777C9.4517 26.2814 10.0591 26.5327 10.7733 26.5327H12.0586C12.7728 26.5327 13.3797 26.7846 13.88 27.2883C14.3797 27.7915 14.6304 28.4032 14.6304 29.1216V30.4158C14.6304 31.1354 14.88 31.7459 15.3803 32.2502C15.88 32.7533 16.4875 33.0052 17.2017 33.0052H22.7723C23.4865 33.0052 24.0934 32.7533 24.5937 32.2502C25.0934 31.7465 25.3441 31.1354 25.3441 30.4158V29.1216C25.3441 28.4032 25.5937 27.7915 26.094 27.2883C26.5937 26.7846 27.2012 26.5327 27.9154 26.5327H29.2007C29.9148 26.5327 30.5218 26.2814 31.022 25.7777C31.5218 25.2746 31.7724 24.6629 31.7724 23.9445V16.1778C31.7724 15.4594 31.5224 14.8476 31.022 14.3445C30.5223 13.8408 29.9148 13.5889 29.2007 13.5889ZM25.3441 23.9445C25.3441 24.6629 25.094 25.2746 24.5937 25.7777C24.0939 26.2814 23.4865 26.5327 22.7723 26.5327H17.2017C16.4875 26.5327 15.8806 26.2814 15.3803 25.7777C14.8806 25.2746 14.6304 24.6629 14.6304 23.9445V16.1778C14.6304 15.4594 14.88 14.8476 15.3803 14.3445C15.88 13.8408 16.4875 13.5889 17.2017 13.5889H22.7723C23.4865 13.5889 24.0934 13.8408 24.5937 14.3445C25.0934 14.8476 25.3441 15.4594 25.3441 16.1778V23.9445Z"
            fill="black" />
    </g>
    <defs>
        <clipPath id="clip0_4061_88136">
            <rect width="40" height="40" fill="white" />
        </clipPath>
    </defs>
</svg>