<svg width="16" height="16" viewBox="0 0 16 16" fill="none" xmlns="http://www.w3.org/2000/svg">
    <g clip-path="url(#clip0_4061_88165)">
        <path
            d="M8 16C12.4183 16 16 12.4183 16 8C16 3.58172 12.4183 0 8 0C3.58172 0 0 3.58172 0 8C0 12.4183 3.58172 16 8 16Z"
            fill="#FF0420" />
        <path
            d="M5.80218 10.24C5.31965 10.24 4.92433 10.1238 4.61613 9.89155C4.31204 9.6551 4.15997 9.3191 4.15997 8.88355C4.15997 8.79228 4.17012 8.68028 4.19037 8.54755C4.24311 8.24889 4.31812 7.89007 4.41543 7.4711C4.69114 6.33036 5.40279 5.75999 6.55031 5.75999C6.86253 5.75999 7.14231 5.81391 7.38964 5.92179C7.637 6.02547 7.83162 6.1831 7.97354 6.39465C8.11546 6.60207 8.18644 6.85097 8.18644 7.14134C8.18644 7.22844 8.17629 7.33836 8.15601 7.4711C8.09521 7.84028 8.02221 8.1991 7.93706 8.54755C7.79514 9.11583 7.54983 9.54102 7.20109 9.8231C6.85239 10.101 6.38609 10.24 5.80218 10.24ZM5.88733 9.34399C6.11441 9.34399 6.30701 9.27555 6.46516 9.13865C6.62733 9.00179 6.74292 8.79228 6.81185 8.5102C6.90509 8.12028 6.97607 7.78015 7.02471 7.48979C7.04093 7.40265 7.04903 7.31347 7.04903 7.2222C7.04903 6.84473 6.85645 6.65599 6.47124 6.65599C6.24417 6.65599 6.04954 6.72444 5.88733 6.86134C5.72919 6.9982 5.61565 7.20771 5.54672 7.48979C5.47373 7.76771 5.40074 8.10783 5.32778 8.5102C5.31156 8.59318 5.30343 8.68028 5.30343 8.77155C5.30343 9.15318 5.49805 9.34399 5.88733 9.34399Z"
            fill="white" />
        <path
            d="M8.46571 10.1778C8.4211 10.1778 8.38664 10.1633 8.36228 10.1342C8.34203 10.101 8.33595 10.0637 8.34404 10.0222L9.1834 5.97779C9.1915 5.93216 9.2138 5.89481 9.25032 5.86579C9.2868 5.83673 9.32532 5.8222 9.36587 5.8222H10.9838C11.4338 5.8222 11.7947 5.91763 12.0664 6.10844C12.3421 6.29926 12.48 6.5751 12.48 6.936C12.48 7.03971 12.4678 7.14755 12.4435 7.25955C12.3421 7.7366 12.1374 8.08918 11.8292 8.31734C11.5251 8.54547 11.1074 8.65955 10.5762 8.65955H9.75512L9.47534 10.0222C9.46724 10.0678 9.44494 10.1052 9.40843 10.1342C9.37195 10.1633 9.33342 10.1778 9.29288 10.1778H8.46571ZM10.6188 7.80089C10.7891 7.80089 10.9371 7.75318 11.0628 7.65779C11.1926 7.56236 11.2777 7.42547 11.3183 7.2471C11.3304 7.1766 11.3365 7.11436 11.3365 7.06044C11.3365 6.94016 11.3021 6.84889 11.2331 6.78665C11.1642 6.72028 11.0466 6.6871 10.8803 6.6871H10.1505L9.91934 7.80089H10.6188Z"
            fill="white" />
    </g>
    <defs>
        <clipPath id="clip0_4061_88165">
            <rect width="16" height="16" fill="white" />
        </clipPath>
    </defs>
</svg>